{
  "title": "Spectre.2015.DVDScr.XVID.AC3.HQ.Hive-CM8",
  "uid": 13090785,
  "size": 2261502762,
  "categoryP": "video",
  "categoryS": "movies",
  "magnet": "?xt=urn:btih:97884f1f3eb6d0f958d3c01412846b2ec7079df0&amp;dn=Spectre.2015.DVDScr.XVID.AC3.HQ.Hive-CM8&amp;tr=udp%3A%2F%2Ftracker.leechers-paradise.org%3A6969&amp;tr=udp%3A%2F%2Fzer0day.ch%3A1337&amp;tr=udp%3A%2F%2Fopen.demonii.com%3A1337&amp;tr=udp%3A%2F%2Ftracker.coppersurfer.tk%3A6969&amp;tr=udp%3A%2F%2Fexodus.desync.com%3A6969",
  "seeders": 38,
  "leechers": 7,
  "uploader": "xxxlavalxxx",
  "files": 4,
  "time": 1451037570,
  "description": "http://extraimago.com/image/C5N\r\n\r\n]http://www.imdb.com/title/tt2379713/\r\n\r\n\r\nA cryptic message from Bond's past sends him on a trail to uncover a sinister organization. While M battles political forces to keep the secret service alive, Bond peels back the layers of deceit to reveal the terrible truth behind SPECTRE.\r\n\r\nDirector: Sam Mendes\r\nWriters: John Logan (screenplay), Neal Purvis (screenplay)\r\nStars: Daniel Craig, Christoph Waltz, Léa Seydoux \r\nGenres: Action | Adventure | Thriller\r\nCountry: UK | USA\r\nLanguage: English | Spanish | Italian | German | French\r\n\r\n\r\nSpectre.2015.DVDScr.XVID.AC3.HQ.Hive-CM8\r\n\r\nThx Hive\r\n\r\nCM8 Doing It Right The First Time \r\n\r\nNotes:\r\n\r\nDVDScreener 11\r\n\r\nEncode:\r\n\r\nquality was nice on this.\r\nSlightly added brightness and sharpness and fixed rgb\r\n\r\ngot very nice\r\nenjoy\r\n\r\nVideo: 720x304 @bitrate 1700 2pass\r\nAudio: English AC3 2.0 Stereo\r\nSample: yes included\r\n\r\nps: i forgot to mention, plz support the producers and go to the cinema and watch them on a big screen too\r\nthx\r\n\r\n\r\n \nhttp://www.imdb.com/title/tt2379713/\r\n\r\n\r\nGeneral\r\nComplete name                  : Spectre.2015.DVDScr.XVID.AC3.HQ.Hive-CM8.avi\r\nFormat                         : AVI\r\nFormat/Info                    : Audio Video Interleave\r\nFormat profile                 : OpenDML\r\nFile size                      : 2.10 GiB\r\nDuration                       : 2h 52mn\r\nOverall bit rate               : 1 748 Kbps\r\nWriting application            : Nandub v1.0rc2\r\nWriting library                : Nandub build 1853/release\r\n\r\nVideo\r\nID                             : 0\r\nFormat                         : MPEG-4 Visual\r\nFormat profile                 : Advanced   \r\nFormat settings, BVOP          : 2\r\nFormat settings, QPel          : Yes\r\nFormat settings, GMC           : No warppoints\r\nFormat settings, Matrix        : Default (H.263)\r\nMuxing mode                    : Packed bitstream\r\nCodec ID                       : XVID\r\nCodec ID/Hint                  : XviD\r\nDuration                       : 2h 28mn\r\nBit rate                       : 1 759 Kbps\r\nWidth                          : 720 pixels\r\nHeight                         : 304 pixels\r\nDisplay aspect ratio           : 2.35:1\r\nFrame rate                     : 29.970 fps\r\nColor space                    : YUV\r\nChroma subsampling             : 4:2:0\r\nBit depth                      : 8 bits\r\nScan type                      : Progressive\r\nCompression mode               : Lossy\r\nBits/(Pixel*Frame)             : 0.268\r\nStream size                    : 1.82 GiB (87%)\r\nWriting library                : XviD 1.2.1 (UTC 2008-12-04)\r\n\r\nAudio\r\nID                             : 1\r\nFormat                         : AC-3\r\nFormat/Info                    : Audio Coding 3\r\nMode extension                 : CM (complete main)\r\nFormat settings, Endianness    : Big\r\nCodec ID                       : 2000\r\nDuration                       : 2h 52mn\r\nSource duration                : 2h 28mn\r\nBit rate mode                  : Constant\r\nBit rate                       : 256 Kbps\r\nChannel(s)                     : 2 channels\r\nChannel positions              : Front: L R\r\nSampling rate                  : 48.0 KHz\r\nBit depth                      : 16 bits\r\nCompression mode               : Lossy\r\nDelay relative to video        : 30ms\r\nStream size                    : 271 MiB (13%)\r\nAlignment                      : Split accross interleaves\r\nInterleave, duration           : 33 ms (1.00 video frame)\r\nInterleave, preload duration   : 500 ms\r\n\r\n\r\nGreetz\r\n\r\nSugarB,iNCOMiNG,Izzy,MenaceIISociety,jiinx,SiMPLE,CherryBomb,bigguy79\r\nranbailey,ViSiON,UnKnOwN,YanKeeS,COPYxRIGHT,THC,VAiN,ACAB,DRs\r\nLKRG,Kingstoner,SiMPLE,TiTAN,cadance,PLAYNOW\r\nUnevano,BigVik,Rapeseed,SAFC,goldadvance,KaN1vE,Pinnz,Wayne,HiGH\r\nSeeN,jtr,Limey,ICONiK,TED,rkofan,mrtoke09\r\nMr Hive\r\n\r\nWONDER WHERE ALL THE OLD DDD FOLKS ARE DONT BE SCARED MESSAGE ME \r\n\r\nLOOKING FOR ANYTHING YOU WANT TO LOOK AND SOUND BETTER\r\n\r\nCOME FIND US WE DONT BITE \r\n  \r\n\r\n \nhttp://extraimago.com/image/DTj \nhttp://extraimago.com/image/DTn \nhttp://extraimago.com/image/DTs \nhttp://extraimago.com/image/DT7 \nhttp://extraimago.com/image/DTc",
  "parsed": {
    "xt": "urn:btih:97884f1f3eb6d0f958d3c01412846b2ec7079df0",
    "dn": "Spectre.2015.DVDScr.XVID.AC3.HQ.Hive-CM8",
    "tr": [
      "udp://exodus.desync.com:6969",
      "udp://open.demonii.com:1337",
      "udp://tracker.coppersurfer.tk:6969",
      "udp://tracker.leechers-paradise.org:6969",
      "udp://zer0day.ch:1337"
    ],
    "infoHash": "97884f1f3eb6d0f958d3c01412846b2ec7079df0",
    "infoHashBuffer": {
      "type": "Buffer",
      "data": [
        151,
        136,
        79,
        31,
        62,
        182,
        208,
        249,
        88,
        211,
        192,
        20,
        18,
        132,
        107,
        46,
        199,
        7,
        157,
        240
      ]
    },
    "name": "Spectre.2015.DVDScr.XVID.AC3.HQ.Hive-CM8",
    "announce": [
      "udp://exodus.desync.com:6969",
      "udp://open.demonii.com:1337",
      "udp://tracker.coppersurfer.tk:6969",
      "udp://tracker.leechers-paradise.org:6969",
      "udp://zer0day.ch:1337"
    ],
    "urlList": []
  },
  "previous": 148,
  "peers": 193,
  "last_updated": "2016-12-27T07:44:13.446Z"
}